# xmcd
#
# Track frame offsets: 
#        150
#        22213
#        39210
#
# Disc length: 861 seconds
#
# Revision: 2
# Processed by: cddbd v1.5.2PL0 Copyright (c) Steve Scherf et al.
# Submitted via: ExactAudioCopy v0.99pb4
#
DISCID=1c035b03
DTITLE=Eric Carmen - All By Myself
DYEAR=1988
DGENRE=Pop
TTITLE0=All By Myself
TTITLE1=Never Gonna Fall In Love Again
TTITLE2=No Hard Feelings
EXTD=
EXTT0=
EXTT1=
EXTT2=
PLAYORDER=
